<mxfile host="Electron" agent="Mozilla/5.0 (Windows NT 10.0; Win64; x64) AppleWebKit/537.36 (KHTML, like Gecko) draw.io/26.0.4 Chrome/128.0.6613.186 Electron/32.2.5 Safari/537.36" version="26.0.4">
  <diagram name="Страница — 1" id="QcnOftdSxRcBq6yeZcao">
    <mxGraphModel dx="500" dy="341" grid="1" gridSize="10" guides="1" tooltips="1" connect="1" arrows="1" fold="1" page="1" pageScale="1" pageWidth="827" pageHeight="1169" math="0" shadow="0">
      <root>
        <mxCell id="0" />
        <mxCell id="1" parent="0" />
        <mxCell id="h1b_t1mf5435tCxF2A7D-4" style="edgeStyle=orthogonalEdgeStyle;rounded=0;orthogonalLoop=1;jettySize=auto;html=1;entryX=0.5;entryY=0;entryDx=0;entryDy=0;" parent="1" source="h1b_t1mf5435tCxF2A7D-1" target="h1b_t1mf5435tCxF2A7D-3" edge="1">
          <mxGeometry relative="1" as="geometry" />
        </mxCell>
        <mxCell id="h1b_t1mf5435tCxF2A7D-1" value="Начало" style="ellipse;whiteSpace=wrap;html=1;" parent="1" vertex="1">
          <mxGeometry x="160" y="10" width="70" height="40" as="geometry" />
        </mxCell>
        <mxCell id="h1b_t1mf5435tCxF2A7D-2" value="&lt;div&gt;#include &amp;lt;iostream&amp;gt;&lt;/div&gt;&lt;div&gt;#include &amp;lt;clocale&amp;gt;&lt;/div&gt;&lt;div&gt;#include &amp;lt;ctime&amp;gt;&lt;/div&gt;&lt;div&gt;#include &amp;lt;stdlib.h&amp;gt;&lt;/div&gt;&lt;div&gt;using namespace std;&lt;/div&gt;" style="text;html=1;align=center;verticalAlign=middle;whiteSpace=wrap;rounded=0;" parent="1" vertex="1">
          <mxGeometry x="254" y="20" width="126" height="80" as="geometry" />
        </mxCell>
        <mxCell id="h1b_t1mf5435tCxF2A7D-13" style="edgeStyle=orthogonalEdgeStyle;rounded=0;orthogonalLoop=1;jettySize=auto;html=1;" parent="1" source="h1b_t1mf5435tCxF2A7D-3" target="h1b_t1mf5435tCxF2A7D-12" edge="1">
          <mxGeometry relative="1" as="geometry" />
        </mxCell>
        <mxCell id="h1b_t1mf5435tCxF2A7D-3" value="int main()" style="shape=process;whiteSpace=wrap;html=1;backgroundOutline=1;" parent="1" vertex="1">
          <mxGeometry x="155" y="80" width="80" height="20" as="geometry" />
        </mxCell>
        <mxCell id="h1b_t1mf5435tCxF2A7D-5" value="" style="endArrow=none;dashed=1;html=1;rounded=0;entryX=0;entryY=0.5;entryDx=0;entryDy=0;" parent="1" target="h1b_t1mf5435tCxF2A7D-2" edge="1">
          <mxGeometry width="50" height="50" relative="1" as="geometry">
            <mxPoint x="200" y="60" as="sourcePoint" />
            <mxPoint x="380" y="150" as="targetPoint" />
          </mxGeometry>
        </mxCell>
        <mxCell id="h1b_t1mf5435tCxF2A7D-6" value="" style="endArrow=none;html=1;rounded=0;exitX=0;exitY=1;exitDx=0;exitDy=0;entryX=1;entryY=1;entryDx=0;entryDy=0;" parent="1" source="h1b_t1mf5435tCxF2A7D-2" target="h1b_t1mf5435tCxF2A7D-2" edge="1">
          <mxGeometry width="50" height="50" relative="1" as="geometry">
            <mxPoint x="330" y="200" as="sourcePoint" />
            <mxPoint x="380" y="150" as="targetPoint" />
          </mxGeometry>
        </mxCell>
        <mxCell id="h1b_t1mf5435tCxF2A7D-7" value="" style="endArrow=none;html=1;rounded=0;entryX=0;entryY=0;entryDx=0;entryDy=0;exitX=0;exitY=1;exitDx=0;exitDy=0;" parent="1" source="h1b_t1mf5435tCxF2A7D-2" target="h1b_t1mf5435tCxF2A7D-2" edge="1">
          <mxGeometry width="50" height="50" relative="1" as="geometry">
            <mxPoint x="204" y="170" as="sourcePoint" />
            <mxPoint x="254" y="120" as="targetPoint" />
          </mxGeometry>
        </mxCell>
        <mxCell id="h1b_t1mf5435tCxF2A7D-8" value="" style="endArrow=none;html=1;rounded=0;exitX=0;exitY=0;exitDx=0;exitDy=0;entryX=1;entryY=0;entryDx=0;entryDy=0;" parent="1" source="h1b_t1mf5435tCxF2A7D-2" target="h1b_t1mf5435tCxF2A7D-2" edge="1">
          <mxGeometry width="50" height="50" relative="1" as="geometry">
            <mxPoint x="330" y="200" as="sourcePoint" />
            <mxPoint x="380" y="150" as="targetPoint" />
          </mxGeometry>
        </mxCell>
        <mxCell id="h1b_t1mf5435tCxF2A7D-32" style="edgeStyle=orthogonalEdgeStyle;rounded=0;orthogonalLoop=1;jettySize=auto;html=1;entryX=0.5;entryY=0;entryDx=0;entryDy=0;" parent="1" source="h1b_t1mf5435tCxF2A7D-9" target="h1b_t1mf5435tCxF2A7D-18" edge="1">
          <mxGeometry relative="1" as="geometry" />
        </mxCell>
        <mxCell id="h1b_t1mf5435tCxF2A7D-9" value="int matr[n][n];" style="rounded=0;whiteSpace=wrap;html=1;" parent="1" vertex="1">
          <mxGeometry x="155" y="240" width="80" height="20" as="geometry" />
        </mxCell>
        <mxCell id="h1b_t1mf5435tCxF2A7D-17" style="edgeStyle=orthogonalEdgeStyle;rounded=0;orthogonalLoop=1;jettySize=auto;html=1;entryX=0.5;entryY=0;entryDx=0;entryDy=0;" parent="1" source="h1b_t1mf5435tCxF2A7D-10" target="h1b_t1mf5435tCxF2A7D-9" edge="1">
          <mxGeometry relative="1" as="geometry" />
        </mxCell>
        <mxCell id="h1b_t1mf5435tCxF2A7D-10" value="const int n = 3;" style="rounded=0;whiteSpace=wrap;html=1;" parent="1" vertex="1">
          <mxGeometry x="150" y="200" width="90" height="20" as="geometry" />
        </mxCell>
        <mxCell id="h1b_t1mf5435tCxF2A7D-16" style="edgeStyle=orthogonalEdgeStyle;rounded=0;orthogonalLoop=1;jettySize=auto;html=1;" parent="1" source="h1b_t1mf5435tCxF2A7D-11" target="h1b_t1mf5435tCxF2A7D-10" edge="1">
          <mxGeometry relative="1" as="geometry" />
        </mxCell>
        <mxCell id="h1b_t1mf5435tCxF2A7D-11" value="setlocale(0, &quot;rus&quot;);" style="rounded=0;whiteSpace=wrap;html=1;" parent="1" vertex="1">
          <mxGeometry x="145" y="160" width="100" height="20" as="geometry" />
        </mxCell>
        <mxCell id="h1b_t1mf5435tCxF2A7D-15" style="edgeStyle=orthogonalEdgeStyle;rounded=0;orthogonalLoop=1;jettySize=auto;html=1;entryX=0.5;entryY=0;entryDx=0;entryDy=0;" parent="1" source="h1b_t1mf5435tCxF2A7D-12" target="h1b_t1mf5435tCxF2A7D-11" edge="1">
          <mxGeometry relative="1" as="geometry" />
        </mxCell>
        <mxCell id="h1b_t1mf5435tCxF2A7D-12" value="srand(time(0));" style="rounded=0;whiteSpace=wrap;html=1;" parent="1" vertex="1">
          <mxGeometry x="150" y="120" width="90" height="20" as="geometry" />
        </mxCell>
        <mxCell id="h1b_t1mf5435tCxF2A7D-21" style="edgeStyle=orthogonalEdgeStyle;rounded=0;orthogonalLoop=1;jettySize=auto;html=1;" parent="1" source="h1b_t1mf5435tCxF2A7D-18" target="h1b_t1mf5435tCxF2A7D-19" edge="1">
          <mxGeometry relative="1" as="geometry" />
        </mxCell>
        <mxCell id="h1b_t1mf5435tCxF2A7D-39" style="edgeStyle=orthogonalEdgeStyle;rounded=0;orthogonalLoop=1;jettySize=auto;html=1;entryX=0.5;entryY=0;entryDx=0;entryDy=0;" parent="1" source="h1b_t1mf5435tCxF2A7D-18" target="h1b_t1mf5435tCxF2A7D-30" edge="1">
          <mxGeometry relative="1" as="geometry" />
        </mxCell>
        <mxCell id="h1b_t1mf5435tCxF2A7D-18" value="for (int i = 0; i &amp;lt; n; i++)" style="shape=hexagon;perimeter=hexagonPerimeter2;whiteSpace=wrap;html=1;fixedSize=1;" parent="1" vertex="1">
          <mxGeometry x="120" y="280" width="150" height="20" as="geometry" />
        </mxCell>
        <mxCell id="h1b_t1mf5435tCxF2A7D-24" style="edgeStyle=orthogonalEdgeStyle;rounded=0;orthogonalLoop=1;jettySize=auto;html=1;" parent="1" source="h1b_t1mf5435tCxF2A7D-19" target="h1b_t1mf5435tCxF2A7D-20" edge="1">
          <mxGeometry relative="1" as="geometry" />
        </mxCell>
        <mxCell id="h1b_t1mf5435tCxF2A7D-45" style="edgeStyle=orthogonalEdgeStyle;rounded=0;orthogonalLoop=1;jettySize=auto;html=1;entryX=0.5;entryY=0;entryDx=0;entryDy=0;" parent="1" source="h1b_t1mf5435tCxF2A7D-19" target="h1b_t1mf5435tCxF2A7D-26" edge="1">
          <mxGeometry relative="1" as="geometry">
            <Array as="points">
              <mxPoint x="285" y="330" />
            </Array>
          </mxGeometry>
        </mxCell>
        <mxCell id="h1b_t1mf5435tCxF2A7D-19" value="for (int j = 0; j &amp;lt; n; j++)" style="shape=hexagon;perimeter=hexagonPerimeter2;whiteSpace=wrap;html=1;fixedSize=1;" parent="1" vertex="1">
          <mxGeometry x="115" y="320" width="160" height="20" as="geometry" />
        </mxCell>
        <mxCell id="h1b_t1mf5435tCxF2A7D-23" style="edgeStyle=orthogonalEdgeStyle;rounded=0;orthogonalLoop=1;jettySize=auto;html=1;entryX=0;entryY=0.5;entryDx=0;entryDy=0;" parent="1" source="h1b_t1mf5435tCxF2A7D-20" target="h1b_t1mf5435tCxF2A7D-19" edge="1">
          <mxGeometry relative="1" as="geometry">
            <mxPoint x="80" y="330" as="targetPoint" />
            <Array as="points">
              <mxPoint x="195" y="390" />
              <mxPoint x="100" y="390" />
              <mxPoint x="100" y="330" />
            </Array>
          </mxGeometry>
        </mxCell>
        <mxCell id="h1b_t1mf5435tCxF2A7D-20" value="matr[i][j] = rand() % 100;" style="rounded=0;whiteSpace=wrap;html=1;" parent="1" vertex="1">
          <mxGeometry x="125" y="360" width="140" height="20" as="geometry" />
        </mxCell>
        <mxCell id="h1b_t1mf5435tCxF2A7D-27" style="edgeStyle=orthogonalEdgeStyle;rounded=0;orthogonalLoop=1;jettySize=auto;html=1;entryX=0;entryY=0.5;entryDx=0;entryDy=0;" parent="1" source="h1b_t1mf5435tCxF2A7D-26" target="h1b_t1mf5435tCxF2A7D-18" edge="1">
          <mxGeometry relative="1" as="geometry">
            <mxPoint x="80" y="280" as="targetPoint" />
            <Array as="points">
              <mxPoint x="290" y="420" />
              <mxPoint x="90" y="420" />
              <mxPoint x="90" y="290" />
            </Array>
          </mxGeometry>
        </mxCell>
        <mxCell id="h1b_t1mf5435tCxF2A7D-26" value="cout &amp;lt;&amp;lt; &#39;\n&#39;;" style="shape=parallelogram;perimeter=parallelogramPerimeter;whiteSpace=wrap;html=1;fixedSize=1;" parent="1" vertex="1">
          <mxGeometry x="240" y="390" width="90" height="20" as="geometry" />
        </mxCell>
        <mxCell id="h1b_t1mf5435tCxF2A7D-34" style="edgeStyle=orthogonalEdgeStyle;rounded=0;orthogonalLoop=1;jettySize=auto;html=1;" parent="1" source="h1b_t1mf5435tCxF2A7D-30" target="h1b_t1mf5435tCxF2A7D-31" edge="1">
          <mxGeometry relative="1" as="geometry" />
        </mxCell>
        <mxCell id="h1b_t1mf5435tCxF2A7D-30" value="cout &amp;lt;&amp;lt; &quot;Начальная матрица: &quot; &amp;lt;&amp;lt; endl;" style="shape=parallelogram;perimeter=parallelogramPerimeter;whiteSpace=wrap;html=1;fixedSize=1;" parent="1" vertex="1">
          <mxGeometry x="318" y="310" width="260" height="20" as="geometry" />
        </mxCell>
        <mxCell id="h1b_t1mf5435tCxF2A7D-35" style="edgeStyle=orthogonalEdgeStyle;rounded=0;orthogonalLoop=1;jettySize=auto;html=1;" parent="1" source="h1b_t1mf5435tCxF2A7D-31" target="h1b_t1mf5435tCxF2A7D-33" edge="1">
          <mxGeometry relative="1" as="geometry" />
        </mxCell>
        <mxCell id="h1b_t1mf5435tCxF2A7D-49" style="edgeStyle=orthogonalEdgeStyle;rounded=0;orthogonalLoop=1;jettySize=auto;html=1;entryX=0.5;entryY=0;entryDx=0;entryDy=0;" parent="1" source="h1b_t1mf5435tCxF2A7D-31" target="h1b_t1mf5435tCxF2A7D-46" edge="1">
          <mxGeometry relative="1" as="geometry">
            <mxPoint x="640" y="350" as="targetPoint" />
            <Array as="points">
              <mxPoint x="715" y="360" />
            </Array>
          </mxGeometry>
        </mxCell>
        <mxCell id="h1b_t1mf5435tCxF2A7D-31" value="for (int k = 0; k &amp;lt; n; k++)" style="shape=hexagon;perimeter=hexagonPerimeter2;whiteSpace=wrap;html=1;fixedSize=1;" parent="1" vertex="1">
          <mxGeometry x="368" y="350" width="160" height="20" as="geometry" />
        </mxCell>
        <mxCell id="h1b_t1mf5435tCxF2A7D-41" style="edgeStyle=orthogonalEdgeStyle;rounded=0;orthogonalLoop=1;jettySize=auto;html=1;" parent="1" source="h1b_t1mf5435tCxF2A7D-33" target="h1b_t1mf5435tCxF2A7D-36" edge="1">
          <mxGeometry relative="1" as="geometry" />
        </mxCell>
        <mxCell id="h1b_t1mf5435tCxF2A7D-43" style="edgeStyle=orthogonalEdgeStyle;rounded=0;orthogonalLoop=1;jettySize=auto;html=1;entryX=0.5;entryY=0;entryDx=0;entryDy=0;" parent="1" source="h1b_t1mf5435tCxF2A7D-33" target="h1b_t1mf5435tCxF2A7D-42" edge="1">
          <mxGeometry relative="1" as="geometry">
            <mxPoint x="560" y="430" as="targetPoint" />
            <Array as="points">
              <mxPoint x="550" y="400" />
            </Array>
          </mxGeometry>
        </mxCell>
        <mxCell id="h1b_t1mf5435tCxF2A7D-33" value="for (int h = 0; h &amp;lt; n; h++)" style="shape=hexagon;perimeter=hexagonPerimeter2;whiteSpace=wrap;html=1;fixedSize=1;" parent="1" vertex="1">
          <mxGeometry x="368" y="390" width="160" height="20" as="geometry" />
        </mxCell>
        <mxCell id="h1b_t1mf5435tCxF2A7D-38" style="edgeStyle=orthogonalEdgeStyle;rounded=0;orthogonalLoop=1;jettySize=auto;html=1;entryX=0;entryY=0.5;entryDx=0;entryDy=0;" parent="1" source="h1b_t1mf5435tCxF2A7D-36" target="h1b_t1mf5435tCxF2A7D-33" edge="1">
          <mxGeometry relative="1" as="geometry">
            <mxPoint x="358" y="420" as="targetPoint" />
            <Array as="points">
              <mxPoint x="448" y="460" />
              <mxPoint x="350" y="460" />
              <mxPoint x="350" y="400" />
            </Array>
          </mxGeometry>
        </mxCell>
        <mxCell id="h1b_t1mf5435tCxF2A7D-36" value="cout &amp;lt;&amp;lt; matr[k][h] &amp;lt;&amp;lt; &#39; &#39;;" style="shape=parallelogram;perimeter=parallelogramPerimeter;whiteSpace=wrap;html=1;fixedSize=1;" parent="1" vertex="1">
          <mxGeometry x="370.5" y="430" width="155" height="20" as="geometry" />
        </mxCell>
        <mxCell id="h1b_t1mf5435tCxF2A7D-44" style="edgeStyle=orthogonalEdgeStyle;rounded=0;orthogonalLoop=1;jettySize=auto;html=1;entryX=0;entryY=0.5;entryDx=0;entryDy=0;" parent="1" source="h1b_t1mf5435tCxF2A7D-42" target="h1b_t1mf5435tCxF2A7D-31" edge="1">
          <mxGeometry relative="1" as="geometry">
            <mxPoint x="340" y="360" as="targetPoint" />
            <Array as="points">
              <mxPoint x="550" y="480" />
              <mxPoint x="340" y="480" />
              <mxPoint x="340" y="360" />
            </Array>
          </mxGeometry>
        </mxCell>
        <mxCell id="h1b_t1mf5435tCxF2A7D-42" value="cout &amp;lt;&amp;lt; &#39;\n&#39;;" style="shape=parallelogram;perimeter=parallelogramPerimeter;whiteSpace=wrap;html=1;fixedSize=1;" parent="1" vertex="1">
          <mxGeometry x="500" y="450" width="100" height="20" as="geometry" />
        </mxCell>
        <mxCell id="h1b_t1mf5435tCxF2A7D-52" style="edgeStyle=orthogonalEdgeStyle;rounded=0;orthogonalLoop=1;jettySize=auto;html=1;entryX=0.5;entryY=0;entryDx=0;entryDy=0;" parent="1" source="h1b_t1mf5435tCxF2A7D-46" target="h1b_t1mf5435tCxF2A7D-51" edge="1">
          <mxGeometry relative="1" as="geometry" />
        </mxCell>
        <mxCell id="h1b_t1mf5435tCxF2A7D-46" value="int tmp;" style="rounded=0;whiteSpace=wrap;html=1;" parent="1" vertex="1">
          <mxGeometry x="690" y="373" width="50" height="20" as="geometry" />
        </mxCell>
        <mxCell id="h1b_t1mf5435tCxF2A7D-57" style="edgeStyle=orthogonalEdgeStyle;rounded=0;orthogonalLoop=1;jettySize=auto;html=1;" parent="1" source="h1b_t1mf5435tCxF2A7D-48" target="h1b_t1mf5435tCxF2A7D-56" edge="1">
          <mxGeometry relative="1" as="geometry" />
        </mxCell>
        <mxCell id="h1b_t1mf5435tCxF2A7D-61" style="edgeStyle=orthogonalEdgeStyle;rounded=0;orthogonalLoop=1;jettySize=auto;html=1;entryX=0;entryY=0.5;entryDx=0;entryDy=0;" parent="1" source="h1b_t1mf5435tCxF2A7D-48" target="h1b_t1mf5435tCxF2A7D-51" edge="1">
          <mxGeometry relative="1" as="geometry">
            <mxPoint x="610" y="410" as="targetPoint" />
            <Array as="points">
              <mxPoint x="810" y="460" />
              <mxPoint x="810" y="610" />
              <mxPoint x="610" y="610" />
              <mxPoint x="610" y="420" />
            </Array>
          </mxGeometry>
        </mxCell>
        <mxCell id="h1b_t1mf5435tCxF2A7D-48" value="&lt;div&gt;for (int j = i; j &amp;lt; n; j++)&lt;br&gt;&lt;/div&gt;" style="shape=hexagon;perimeter=hexagonPerimeter2;whiteSpace=wrap;html=1;fixedSize=1;" parent="1" vertex="1">
          <mxGeometry x="640" y="450" width="150" height="20" as="geometry" />
        </mxCell>
        <mxCell id="h1b_t1mf5435tCxF2A7D-53" style="edgeStyle=orthogonalEdgeStyle;rounded=0;orthogonalLoop=1;jettySize=auto;html=1;entryX=0.5;entryY=0;entryDx=0;entryDy=0;" parent="1" source="h1b_t1mf5435tCxF2A7D-51" target="h1b_t1mf5435tCxF2A7D-48" edge="1">
          <mxGeometry relative="1" as="geometry" />
        </mxCell>
        <mxCell id="h1b_t1mf5435tCxF2A7D-63" style="edgeStyle=orthogonalEdgeStyle;rounded=0;orthogonalLoop=1;jettySize=auto;html=1;entryX=0.5;entryY=0;entryDx=0;entryDy=0;" parent="1" source="h1b_t1mf5435tCxF2A7D-51" target="h1b_t1mf5435tCxF2A7D-62" edge="1">
          <mxGeometry relative="1" as="geometry" />
        </mxCell>
        <mxCell id="h1b_t1mf5435tCxF2A7D-51" value="for (int i = 0; i &amp;lt; n; i++)" style="shape=hexagon;perimeter=hexagonPerimeter2;whiteSpace=wrap;html=1;fixedSize=1;" parent="1" vertex="1">
          <mxGeometry x="645" y="410" width="140" height="20" as="geometry" />
        </mxCell>
        <mxCell id="h1b_t1mf5435tCxF2A7D-60" style="edgeStyle=orthogonalEdgeStyle;rounded=0;orthogonalLoop=1;jettySize=auto;html=1;entryX=0;entryY=0.5;entryDx=0;entryDy=0;" parent="1" source="h1b_t1mf5435tCxF2A7D-54" target="h1b_t1mf5435tCxF2A7D-48" edge="1">
          <mxGeometry relative="1" as="geometry">
            <mxPoint x="630" y="460" as="targetPoint" />
            <Array as="points">
              <mxPoint x="715" y="600" />
              <mxPoint x="620" y="600" />
              <mxPoint x="620" y="460" />
            </Array>
          </mxGeometry>
        </mxCell>
        <mxCell id="h1b_t1mf5435tCxF2A7D-54" value="matr[j][i] = tmp;" style="rounded=0;whiteSpace=wrap;html=1;" parent="1" vertex="1">
          <mxGeometry x="670" y="567.5" width="90" height="20" as="geometry" />
        </mxCell>
        <mxCell id="h1b_t1mf5435tCxF2A7D-59" style="edgeStyle=orthogonalEdgeStyle;rounded=0;orthogonalLoop=1;jettySize=auto;html=1;" parent="1" source="h1b_t1mf5435tCxF2A7D-55" target="h1b_t1mf5435tCxF2A7D-54" edge="1">
          <mxGeometry relative="1" as="geometry" />
        </mxCell>
        <mxCell id="h1b_t1mf5435tCxF2A7D-55" value="matr[i][j] = matr[j][i];" style="rounded=0;whiteSpace=wrap;html=1;" parent="1" vertex="1">
          <mxGeometry x="660" y="530" width="110" height="20" as="geometry" />
        </mxCell>
        <mxCell id="h1b_t1mf5435tCxF2A7D-58" style="edgeStyle=orthogonalEdgeStyle;rounded=0;orthogonalLoop=1;jettySize=auto;html=1;" parent="1" source="h1b_t1mf5435tCxF2A7D-56" target="h1b_t1mf5435tCxF2A7D-55" edge="1">
          <mxGeometry relative="1" as="geometry" />
        </mxCell>
        <mxCell id="h1b_t1mf5435tCxF2A7D-56" value="tmp = matr[i][j];" style="rounded=0;whiteSpace=wrap;html=1;" parent="1" vertex="1">
          <mxGeometry x="670" y="490" width="90" height="20" as="geometry" />
        </mxCell>
        <mxCell id="h1b_t1mf5435tCxF2A7D-74" style="edgeStyle=orthogonalEdgeStyle;rounded=0;orthogonalLoop=1;jettySize=auto;html=1;entryX=0.5;entryY=0;entryDx=0;entryDy=0;" parent="1" source="h1b_t1mf5435tCxF2A7D-62" target="h1b_t1mf5435tCxF2A7D-65" edge="1">
          <mxGeometry relative="1" as="geometry" />
        </mxCell>
        <mxCell id="h1b_t1mf5435tCxF2A7D-62" value="cout &amp;lt;&amp;lt; &quot;Транспортированная матрица: &quot; &amp;lt;&amp;lt; endl;" style="shape=parallelogram;perimeter=parallelogramPerimeter;whiteSpace=wrap;html=1;fixedSize=1;" parent="1" vertex="1">
          <mxGeometry x="827" y="450" width="310" height="20" as="geometry" />
        </mxCell>
        <mxCell id="h1b_t1mf5435tCxF2A7D-64" style="edgeStyle=orthogonalEdgeStyle;rounded=0;orthogonalLoop=1;jettySize=auto;html=1;" parent="1" source="h1b_t1mf5435tCxF2A7D-65" target="h1b_t1mf5435tCxF2A7D-68" edge="1">
          <mxGeometry relative="1" as="geometry" />
        </mxCell>
        <mxCell id="h1b_t1mf5435tCxF2A7D-75" style="edgeStyle=orthogonalEdgeStyle;rounded=0;orthogonalLoop=1;jettySize=auto;html=1;" parent="1" source="h1b_t1mf5435tCxF2A7D-65" target="h1b_t1mf5435tCxF2A7D-76" edge="1">
          <mxGeometry relative="1" as="geometry">
            <mxPoint x="1179.9999999999998" y="520" as="targetPoint" />
          </mxGeometry>
        </mxCell>
        <mxCell id="h1b_t1mf5435tCxF2A7D-65" value="for (int k = 0; k &amp;lt; n; k++)" style="shape=hexagon;perimeter=hexagonPerimeter2;whiteSpace=wrap;html=1;fixedSize=1;" parent="1" vertex="1">
          <mxGeometry x="902" y="490" width="160" height="20" as="geometry" />
        </mxCell>
        <mxCell id="h1b_t1mf5435tCxF2A7D-66" style="edgeStyle=orthogonalEdgeStyle;rounded=0;orthogonalLoop=1;jettySize=auto;html=1;" parent="1" source="h1b_t1mf5435tCxF2A7D-68" target="h1b_t1mf5435tCxF2A7D-70" edge="1">
          <mxGeometry relative="1" as="geometry" />
        </mxCell>
        <mxCell id="h1b_t1mf5435tCxF2A7D-67" style="edgeStyle=orthogonalEdgeStyle;rounded=0;orthogonalLoop=1;jettySize=auto;html=1;entryX=0.5;entryY=0;entryDx=0;entryDy=0;" parent="1" source="h1b_t1mf5435tCxF2A7D-68" target="h1b_t1mf5435tCxF2A7D-72" edge="1">
          <mxGeometry relative="1" as="geometry">
            <mxPoint x="1094" y="570" as="targetPoint" />
            <Array as="points">
              <mxPoint x="1084" y="540" />
            </Array>
          </mxGeometry>
        </mxCell>
        <mxCell id="h1b_t1mf5435tCxF2A7D-68" value="for (int h = 0; h &amp;lt; n; h++)" style="shape=hexagon;perimeter=hexagonPerimeter2;whiteSpace=wrap;html=1;fixedSize=1;" parent="1" vertex="1">
          <mxGeometry x="902" y="530" width="160" height="20" as="geometry" />
        </mxCell>
        <mxCell id="h1b_t1mf5435tCxF2A7D-69" style="edgeStyle=orthogonalEdgeStyle;rounded=0;orthogonalLoop=1;jettySize=auto;html=1;entryX=0;entryY=0.5;entryDx=0;entryDy=0;" parent="1" source="h1b_t1mf5435tCxF2A7D-70" target="h1b_t1mf5435tCxF2A7D-68" edge="1">
          <mxGeometry relative="1" as="geometry">
            <mxPoint x="892" y="560" as="targetPoint" />
            <Array as="points">
              <mxPoint x="982" y="600" />
              <mxPoint x="884" y="600" />
              <mxPoint x="884" y="540" />
            </Array>
          </mxGeometry>
        </mxCell>
        <mxCell id="h1b_t1mf5435tCxF2A7D-70" value="cout &amp;lt;&amp;lt; matr[k][h] &amp;lt;&amp;lt; &#39; &#39;;" style="shape=parallelogram;perimeter=parallelogramPerimeter;whiteSpace=wrap;html=1;fixedSize=1;" parent="1" vertex="1">
          <mxGeometry x="904.5" y="570" width="155" height="20" as="geometry" />
        </mxCell>
        <mxCell id="h1b_t1mf5435tCxF2A7D-71" style="edgeStyle=orthogonalEdgeStyle;rounded=0;orthogonalLoop=1;jettySize=auto;html=1;entryX=0;entryY=0.5;entryDx=0;entryDy=0;" parent="1" source="h1b_t1mf5435tCxF2A7D-72" target="h1b_t1mf5435tCxF2A7D-65" edge="1">
          <mxGeometry relative="1" as="geometry">
            <mxPoint x="874" y="500" as="targetPoint" />
            <Array as="points">
              <mxPoint x="1084" y="620" />
              <mxPoint x="874" y="620" />
              <mxPoint x="874" y="500" />
            </Array>
          </mxGeometry>
        </mxCell>
        <mxCell id="h1b_t1mf5435tCxF2A7D-72" value="cout &amp;lt;&amp;lt; &#39;\n&#39;;" style="shape=parallelogram;perimeter=parallelogramPerimeter;whiteSpace=wrap;html=1;fixedSize=1;" parent="1" vertex="1">
          <mxGeometry x="1034" y="590" width="100" height="20" as="geometry" />
        </mxCell>
        <mxCell id="h1b_t1mf5435tCxF2A7D-76" value="return 0;" style="ellipse;whiteSpace=wrap;html=1;" parent="1" vertex="1">
          <mxGeometry x="1150" y="520" width="60" height="40" as="geometry" />
        </mxCell>
        <mxCell id="h1b_t1mf5435tCxF2A7D-77" value="{" style="text;html=1;align=center;verticalAlign=middle;whiteSpace=wrap;rounded=0;" parent="1" vertex="1">
          <mxGeometry x="170" y="100" width="20" height="20" as="geometry" />
        </mxCell>
        <mxCell id="h1b_t1mf5435tCxF2A7D-78" value="}" style="text;html=1;align=center;verticalAlign=middle;whiteSpace=wrap;rounded=0;" parent="1" vertex="1">
          <mxGeometry x="290" y="410" width="20" height="20" as="geometry" />
        </mxCell>
        <mxCell id="h1b_t1mf5435tCxF2A7D-79" value="}" style="text;html=1;align=center;verticalAlign=middle;whiteSpace=wrap;rounded=0;" parent="1" vertex="1">
          <mxGeometry x="200" y="380" width="20" height="20" as="geometry" />
        </mxCell>
        <mxCell id="h1b_t1mf5435tCxF2A7D-80" value="{" style="text;html=1;align=center;verticalAlign=middle;whiteSpace=wrap;rounded=0;" parent="1" vertex="1">
          <mxGeometry x="155" y="300" width="20" height="20" as="geometry" />
        </mxCell>
        <mxCell id="h1b_t1mf5435tCxF2A7D-81" value="{" style="text;html=1;align=center;verticalAlign=middle;whiteSpace=wrap;rounded=0;" parent="1" vertex="1">
          <mxGeometry x="160" y="340" width="20" height="20" as="geometry" />
        </mxCell>
        <mxCell id="h1b_t1mf5435tCxF2A7D-82" value="}" style="text;html=1;align=center;verticalAlign=middle;whiteSpace=wrap;rounded=0;" parent="1" vertex="1">
          <mxGeometry x="558" y="470" width="20" height="20" as="geometry" />
        </mxCell>
        <mxCell id="h1b_t1mf5435tCxF2A7D-83" value="}" style="text;html=1;align=center;verticalAlign=middle;whiteSpace=wrap;rounded=0;" parent="1" vertex="1">
          <mxGeometry x="450" y="450" width="20" height="20" as="geometry" />
        </mxCell>
        <mxCell id="h1b_t1mf5435tCxF2A7D-84" value="{" style="text;html=1;align=center;verticalAlign=middle;whiteSpace=wrap;rounded=0;" parent="1" vertex="1">
          <mxGeometry x="404" y="370" width="20" height="20" as="geometry" />
        </mxCell>
        <mxCell id="h1b_t1mf5435tCxF2A7D-85" value="{" style="text;html=1;align=center;verticalAlign=middle;whiteSpace=wrap;rounded=0;" parent="1" vertex="1">
          <mxGeometry x="404" y="410" width="20" height="20" as="geometry" />
        </mxCell>
        <mxCell id="h1b_t1mf5435tCxF2A7D-86" value="}" style="text;html=1;align=center;verticalAlign=middle;whiteSpace=wrap;rounded=0;" parent="1" vertex="1">
          <mxGeometry x="807" y="590" width="20" height="20" as="geometry" />
        </mxCell>
        <mxCell id="h1b_t1mf5435tCxF2A7D-87" value="}" style="text;html=1;align=center;verticalAlign=middle;whiteSpace=wrap;rounded=0;" parent="1" vertex="1">
          <mxGeometry x="720" y="590" width="20" height="15" as="geometry" />
        </mxCell>
        <mxCell id="h1b_t1mf5435tCxF2A7D-88" value="{" style="text;html=1;align=center;verticalAlign=middle;whiteSpace=wrap;rounded=0;" parent="1" vertex="1">
          <mxGeometry x="670" y="430" width="20" height="20" as="geometry" />
        </mxCell>
        <mxCell id="h1b_t1mf5435tCxF2A7D-89" value="{" style="text;html=1;align=center;verticalAlign=middle;whiteSpace=wrap;rounded=0;" parent="1" vertex="1">
          <mxGeometry x="670" y="470" width="20" height="20" as="geometry" />
        </mxCell>
        <mxCell id="h1b_t1mf5435tCxF2A7D-90" value="{" style="text;html=1;align=center;verticalAlign=middle;whiteSpace=wrap;rounded=0;" parent="1" vertex="1">
          <mxGeometry x="930" y="510" width="20" height="20" as="geometry" />
        </mxCell>
        <mxCell id="h1b_t1mf5435tCxF2A7D-91" value="{" style="text;html=1;align=center;verticalAlign=middle;whiteSpace=wrap;rounded=0;" parent="1" vertex="1">
          <mxGeometry x="930" y="550" width="20" height="20" as="geometry" />
        </mxCell>
        <mxCell id="h1b_t1mf5435tCxF2A7D-92" value="}" style="text;html=1;align=center;verticalAlign=middle;whiteSpace=wrap;rounded=0;" parent="1" vertex="1">
          <mxGeometry x="980" y="590" width="20" height="20" as="geometry" />
        </mxCell>
        <mxCell id="h1b_t1mf5435tCxF2A7D-93" value="}" style="text;html=1;align=center;verticalAlign=middle;whiteSpace=wrap;rounded=0;" parent="1" vertex="1">
          <mxGeometry x="1090" y="610" width="20" height="20" as="geometry" />
        </mxCell>
        <mxCell id="h1b_t1mf5435tCxF2A7D-94" value="}" style="text;html=1;align=center;verticalAlign=middle;whiteSpace=wrap;rounded=0;" parent="1" vertex="1">
          <mxGeometry x="1210" y="530" width="20" height="20" as="geometry" />
        </mxCell>
        <mxCell id="h1b_t1mf5435tCxF2A7D-95" value="1" style="text;html=1;align=center;verticalAlign=middle;whiteSpace=wrap;rounded=0;" parent="1" vertex="1">
          <mxGeometry x="170" y="300" width="20" height="20" as="geometry" />
        </mxCell>
        <mxCell id="h1b_t1mf5435tCxF2A7D-96" value="1" style="text;html=1;align=center;verticalAlign=middle;whiteSpace=wrap;rounded=0;" parent="1" vertex="1">
          <mxGeometry x="175" y="340" width="20" height="20" as="geometry" />
        </mxCell>
        <mxCell id="h1b_t1mf5435tCxF2A7D-97" value="0" style="text;html=1;align=center;verticalAlign=middle;whiteSpace=wrap;rounded=0;" parent="1" vertex="1">
          <mxGeometry x="270" y="270" width="20" height="20" as="geometry" />
        </mxCell>
        <mxCell id="h1b_t1mf5435tCxF2A7D-98" value="0" style="text;html=1;align=center;verticalAlign=middle;whiteSpace=wrap;rounded=0;" parent="1" vertex="1">
          <mxGeometry x="270" y="310" width="20" height="20" as="geometry" />
        </mxCell>
        <mxCell id="h1b_t1mf5435tCxF2A7D-99" value="1" style="text;html=1;align=center;verticalAlign=middle;whiteSpace=wrap;rounded=0;" parent="1" vertex="1">
          <mxGeometry x="424" y="370" width="20" height="20" as="geometry" />
        </mxCell>
        <mxCell id="h1b_t1mf5435tCxF2A7D-100" value="1" style="text;html=1;align=center;verticalAlign=middle;whiteSpace=wrap;rounded=0;" parent="1" vertex="1">
          <mxGeometry x="424" y="410" width="20" height="20" as="geometry" />
        </mxCell>
        <mxCell id="h1b_t1mf5435tCxF2A7D-101" value="0" style="text;html=1;align=center;verticalAlign=middle;whiteSpace=wrap;rounded=0;" parent="1" vertex="1">
          <mxGeometry x="528" y="340" width="20" height="20" as="geometry" />
        </mxCell>
        <mxCell id="h1b_t1mf5435tCxF2A7D-102" value="0" style="text;html=1;align=center;verticalAlign=middle;whiteSpace=wrap;rounded=0;" parent="1" vertex="1">
          <mxGeometry x="528" y="380" width="20" height="20" as="geometry" />
        </mxCell>
        <mxCell id="h1b_t1mf5435tCxF2A7D-103" value="1" style="text;html=1;align=center;verticalAlign=middle;whiteSpace=wrap;rounded=0;" parent="1" vertex="1">
          <mxGeometry x="690" y="430" width="20" height="20" as="geometry" />
        </mxCell>
        <mxCell id="h1b_t1mf5435tCxF2A7D-104" value="1" style="text;html=1;align=center;verticalAlign=middle;whiteSpace=wrap;rounded=0;" parent="1" vertex="1">
          <mxGeometry x="690" y="470" width="20" height="20" as="geometry" />
        </mxCell>
        <mxCell id="h1b_t1mf5435tCxF2A7D-105" value="0" style="text;html=1;align=center;verticalAlign=middle;whiteSpace=wrap;rounded=0;" parent="1" vertex="1">
          <mxGeometry x="785" y="400" width="20" height="20" as="geometry" />
        </mxCell>
        <mxCell id="h1b_t1mf5435tCxF2A7D-106" value="0" style="text;html=1;align=center;verticalAlign=middle;whiteSpace=wrap;rounded=0;" parent="1" vertex="1">
          <mxGeometry x="790" y="440" width="20" height="20" as="geometry" />
        </mxCell>
        <mxCell id="h1b_t1mf5435tCxF2A7D-107" value="0" style="text;html=1;align=center;verticalAlign=middle;whiteSpace=wrap;rounded=0;" parent="1" vertex="1">
          <mxGeometry x="1062" y="480" width="20" height="20" as="geometry" />
        </mxCell>
        <mxCell id="h1b_t1mf5435tCxF2A7D-108" value="0" style="text;html=1;align=center;verticalAlign=middle;whiteSpace=wrap;rounded=0;" parent="1" vertex="1">
          <mxGeometry x="1062" y="520" width="20" height="20" as="geometry" />
        </mxCell>
        <mxCell id="h1b_t1mf5435tCxF2A7D-109" value="1" style="text;html=1;align=center;verticalAlign=middle;whiteSpace=wrap;rounded=0;" parent="1" vertex="1">
          <mxGeometry x="950" y="510" width="20" height="20" as="geometry" />
        </mxCell>
        <mxCell id="h1b_t1mf5435tCxF2A7D-110" value="1" style="text;html=1;align=center;verticalAlign=middle;whiteSpace=wrap;rounded=0;" parent="1" vertex="1">
          <mxGeometry x="950" y="550" width="20" height="20" as="geometry" />
        </mxCell>
      </root>
    </mxGraphModel>
  </diagram>
</mxfile>
